<?xml version="1.0" encoding="utf-8"?>
<!-- Generator: Adobe Illustrator 25.4.1, SVG Export Plug-In . SVG Version: 6.00 Build 0)  -->
<svg version="1.1" xmlns="http://www.w3.org/2000/svg" xmlns:xlink="http://www.w3.org/1999/xlink" x="0px" y="0px"
	 viewBox="0 0 491.2 165.7" style="enable-background:new 0 0 491.2 165.7;" xml:space="preserve">
<style type="text/css">
	.st0{display:none;}
	.st1{display:inline;}
	.st2{display:inline;fill:#4E545B;}
	.st3{display:inline;fill:#FE8341;}
	.st4{display:inline;fill:#FBA77C;}
	.st5{display:inline;fill:#8E9093;}
	.st6{display:inline;fill:#1C252B;}
	.st7{fill:#FC5B0E;}
	.st8{fill:#1B242B;}
	.st9{fill:#FD5E10;}
	.st10{fill:#1C252B;}
	.st11{fill:#FD5D0F;}
</style>
<g id="Layer_1" class="st0">
	<path class="st1" d="M313.5,305.8c-121.8,0-243.4,0-365.1,0c0-148.8,0-297.6,0-446.5c198.4,0,396.9,0,595.3,0
		c0,148.8,0,297.6,0,446.5C467,305.8,390.3,305.8,313.5,305.8 M489.4,73.6c0-0.7-0.1-1.4,0-2.4c0.3-2.1,0.7-4.2,1.1-6.5
		c-3,0-5.9,0-8.9,0c-0.2,1.3-0.3,2.7-0.5,4c-0.8,4.7-1.6,9.5-2.4,14.2c-0.8,4.5-1.7,9.1-2.3,13.6c-0.5,4.1-1.9,8.1-1.1,12.4
		c0.8,4.2,2.9,7,6.8,8.1c2.6,0.7,5.5,0.5,8.2,0.9c2.1,0.3,2.6-0.9,2.8-2.5c0-0.3,0-0.7,0-1c0.7-4.6,0.7-4.6-3.8-4.7
		c-3.4-0.1-5.6-2.5-5.2-5.7c0.2-1.8,0.7-3.6,1-5.3c0.9-5.4,1.8-10.7,3.1-16.1c2.2,0,4.5,0.1,6.7,0c1.1,0,2.2-0.3,3.5-0.6
		c0.3-1.8,0.6-3.7,0.8-5.5c0.1-0.7,0-1.4-0.2-2.4c-3.2,0-6.4-0.1-9.6-0.1C489.4,73.9,489.4,73.9,489.4,73.6 M124.7,94.5
		c0,0,0,0,0.4,0c4.1,0,8.3,0.1,12.5,0.4c0.5,1,1,2.1,1.5,3.1c3,5.9,6.1,11.7,9,17.6c0.8,1.7,1.7,2.6,3.7,2.4c2.5-0.2,5.1,0,7.6-0.1
		c0.6,0,1.3-0.1,2.1-0.2c-4.1-7.9-8.1-15.5-12.2-23.4c1.1-0.3,1.8-0.4,2.5-0.6c6.9-1.6,12.1-5.3,14.5-12.2c1.6-4.8,2.6-9.8,2.1-14.8
		c-0.8-7.8-5.9-11.3-13.2-12.8c-0.3-0.1-0.5-0.1-0.8-0.1c-10.4,0-20.9,0-31.3,0c-0.6,0-1.2,0.3-1.9,0.7c-0.2,1.6-0.2,3.2-0.5,4.8
		c-1.2,7.6-2.4,15.1-3.7,22.7c-2,11.4-4,22.7-6,34.1c-0.2,0.9-0.2,1.9,1.2,1.9c2.8,0,5.6,0,8.5,0c0.4-2.2,0.8-4.1,1.1-6.1
		c0.9-5.6,1.8-11.3,2.9-16.9C124.6,94.7,124.7,94.6,124.7,94.5 M262.1,99.8c0,0,0,0,0.4,0c6.6,0,13.3,0,19.9,0
		c0.6,0,1.2-0.2,2.2-0.4c4.9-0.4,7.5-3.3,8.8-7.7c2.3-7.7-0.4-13.8-7.4-16.9c-4.7-2.1-9.9-1.5-14.9-1c-4,0.4-7.3,2.3-10.4,4.8
		c-3.6,2.9-5.4,6.8-6.5,11.1c-0.8,3.3-1.1,6.7-1.5,10.1c-0.6,4.7-0.3,9.3,3,13.1c2.7,3.1,6.4,4.6,10.8,5.1c5.8,0,11.6,0,17.4,0
		c0.6,0,1.2-0.2,1.9-0.7c0.3-2.5,0.5-5,0.6-7.8c-3.4,0-6.8,0-10.2,0c-1.7,0-3.4,0.2-5.5,0.3c-6,0.1-9.3-3.3-8.7-9.3
		C262.1,100.2,262.1,100,262.1,99.8 M430.2,82.6c0-0.4-0.1-0.9,0-1.6c0.5-3,1.3-6,1.6-9.1c0.3-3.1,0.8-5.9,4.5-7
		c7.5,0,15.1,0,22.6,0c0.5,0,1.1-0.2,1.7-0.7c0.4-2.2,0.7-4.4,1.1-7c0.3-1.4-0.6-1.3-1.6-1.3c-8.5,0-17,0-25.5,0
		c-0.5,0-1,0.3-1.8,0.4c-5.6,1.1-8.9,5.6-9.8,10.9c-0.6,3.2-0.8,6.5-1.3,9.8c-0.9,5.7-1.9,11.4-2.8,17c-0.8,4.7-1.6,9.3-2.4,14
		c-0.5,3.2-0.9,6.5-1.4,10c2.8,0,5.2-0.1,7.7,0c1.4,0.1,1.8-0.6,2-1.9c0.4-3.1,1-6.2,1.5-9.3c0.8-4.9,1.5-9.8,2.7-14.7
		c7.7,0,15.3,0,23,0c0.7,0,1.4-0.2,2.4-0.6c0.3-2.7,0.6-5.4,0.7-8.4c-8.3,0-16.6-0.1-24.9-0.1C430.2,83,430.2,83,430.2,82.6
		 M339,117.1c0.3,0.3,0.5,0.8,0.8,0.8c3,0.1,6,0,9,0c0.2,0,0.3-0.3,0.5-0.7c0.9-1.6,1.8-3.1,2.6-4.7c1.7-3.2,3.4-6.4,5.1-9.6
		c1.2-2.2,2.4-4.3,3.5-6.5c1.4-2.5,2.8-5.1,4.2-7.6c2.5-4.8,5.1-9.6,7.7-14.4c-0.1,0-0.1,0-0.5-0.1c-2.7-0.1-5.3-0.2-8-0.2
		c-0.4,0-1,0.4-1.2,0.8c-1,1.6-1.8,3.3-2.7,5c-4,7.4-8,14.8-11.9,22.2c-0.6,1.2-1.2,2.3-2,3.8c-0.4-0.8-0.6-1.2-0.7-1.6
		c-1.8-9.4-3.7-18.8-5.4-28.2c-0.3-1.5-0.9-2.1-2.4-2c-1.8,0.1-3.7,0-5.5,0c-1.9,0-2.4,0.7-2,2.6c0.8,3.8,1.7,7.5,2.5,11.3
		c1.8,8,3.5,16,5.3,24.1C338.1,113.5,338.6,115.1,339,117.1 M212.7,111.1c-0.3,1.9-0.5,3.7-1.1,5.8c-0.4,1.4,0.7,1,1.3,1
		c6.6,0,13.3,0,20.2,0c2.3-0.7,4.8-1.1,7-2.1c4.3-2,5.4-6.2,6.7-10.3c1.8-5.9-2.1-12.4-8.7-13.2c-2.8-0.3-5.5-0.5-8.3-0.7
		c-1.9-0.2-3.9-0.5-4.6-2.7c-0.8-2.4,0.1-4.5,2.2-5.8c0.7-0.4,1.5-0.7,2.6-1c5.6,0,11.1,0,16.7,0c0.6,0,1.1-0.2,1.7-0.7
		c0.3-2.3,0.7-4.7,1.1-7.2c-0.7-0.1-1.3-0.2-1.9-0.2c-6.2,0-12.5-0.1-18.7,0c-1.5,0-3.1,0.5-4.5,1.1c-5,2.2-7.8,5.9-8.6,11.6
		c-1,7.2,2,11.4,9.1,12.8c2.8,0.6,5.8,0.3,8.7,0.7c1.8,0.3,3.5,0.8,4.3,2.9c0.8,2-0.2,3.5-1.4,4.6c-1.2,1.1-3,1.4-4.9,2.1
		c-5.7,0-11.5,0-17.2,0C213.7,109.7,212.6,109.3,212.7,111.1 M392.6,82.1c4,0.5,5.7,1.8,6.5,5.6c0.3,1.3-0.1,2.7-0.6,4
		c-5.6,0-11.3-0.1-16.9-0.1c-0.4,0-0.8,0.3-1.6,0.4c-1.2,0.4-2.4,0.7-3.6,1.1c-7.9,2.5-9.2,10.9-8,17.2c0.9,4.5,4.4,6.4,8.8,7.5
		c0.2,0,0.4,0.1,0.6,0.1c8,0,15.9,0,23.9-0.1c0.6,0,1.1-0.2,1.8-0.6c1.5-9.2,3.2-18.3,4.6-27.5c1.4-9.2-3.5-14.9-12-15.8
		c-5.8-0.6-11.6-0.1-17.5,0c-0.5,0-1.3,0.6-1.4,1c-0.5,2.2-0.8,4.5-1,7C381.6,82,386.9,82.1,392.6,82.1 M177.8,99.8
		c7,0,14.1,0,21.1,0c0.4,0,0.8-0.3,1.5-0.4c1.8-0.8,4-1.1,5.4-2.4c4.2-3.6,5.2-10,3-15.4c-1.4-3.3-3.9-5.7-7.1-6.9
		c-6.1-2.1-12.5-2.1-18.5-0.2c-7,2.2-11.5,7.4-13.1,14.5c-1.2,5.2-1.8,10.5-1.8,16c0,6.6,7.1,12.4,12.9,12.8c6.5,0,13,0.1,19.4,0.1
		c1.4,0,1-1,1.3-2c0.2-2.1,0.3-4.2,0.2-6.6c-6,0-12.1,0-18.4-0.1c-2.8-0.7-5.3-1.8-6-4.9C177.4,102.9,177.5,101.3,177.8,99.8
		 M74.3-3.7C70.5-2.4,66.6-1,62.8,0.3C54.3,3.2,45.6,6,37.1,9c-4.3,1.5-6.6,5.1-6.9,9.5C29.9,23.6,30,28.8,29.8,34
		c-0.2,7.4-0.3,14.8-0.9,22.2c-0.4,5-1.8,10-2.7,15c-0.8,4.4-1.7,8.7-2.5,13.1c-0.8,4.3-1.4,8.6-2.2,12.9c-1.3,6.8-2.6,13.5-4,20.3
		c-1.7,8.7-3.6,17.4-5.2,26.2c-0.4,2.3-0.3,5.1,0.6,7.1c2.1,4.5,6.2,6.1,11,5.7c4.6-0.3,7.9-3,9.1-7.5c1.7-6,3-12.1,4.6-18.1
		c1.9-7.2,3.8-14.3,5.7-21.5c0.4,0.5,0.5,0.9,0.6,1.3c2.8,7.6,5.6,15.2,8.3,22.8c2,5.7,3.9,11.5,6,17.2c0.5,1.2,1.5,2.4,2.4,3.3
		c2.9,2.8,6.5,3,10.2,2.1c3.3-0.8,7.3-5,7.2-8.8c-0.2-4.4-1.8-8.3-2.9-12.5c-2-7.2-4-14.4-6.2-21.5c-1-3.1-0.7-5.1,1.7-7.7
		c6.3-6.7,12.1-13.9,17.9-21c3.5-4.2,4-9.6-0.4-13.7c-2.8-2.7-6.1-4.8-9.1-7.2c-6.8-5.2-13.7-10.5-20.6-15.7
		c-2.9-2.2-5.4-4.3-5.2-8.5c0.1-2.9-0.7-5.9-1.1-8.8c-0.5-3,0.3-4.4,3.2-5.4c8-2.8,15.9-5.7,23.9-8.5c5.9-2.1,9.1-5.8,8.7-12.2
		c-0.2-3.5-3.1-7.3-6.5-7.9C79.1-3.7,76.9-3.6,74.3-3.7 M314.1,74.3c-4.1,0.5-7.4,2.4-10.1,5.5c-3.2,3.6-3.7,8.2-4.5,12.7
		c-1,5.1-1.6,10.3-2.4,15.5c-0.4,2.7-1,5.3-1.2,8c-0.1,0.6,0.8,1.7,1.3,1.8c2.1,0.2,4.2,0,6.3-0.1c0.4,0,1.1-0.5,1.1-0.8
		c0.6-3.3,1.2-6.6,1.7-9.9c0.9-5.7,1.8-11.4,2.8-17.1c0.8-4.8,5-7.2,8.9-7.2c1.8,0,3.6,0,5.3,0c1,0,1.6-0.3,1.7-1.5
		c0.2-1.9,0.6-3.8,0.8-5.8c0-0.4-0.5-1.2-0.8-1.2C321.5,74,318,74.1,314.1,74.3 M57.8,35.2c0,0.6,0,1.2,0,1.8
		c0.4,8.5,5.7,13.6,13.6,13.7c9,0.2,17.5-8.4,14.1-19.6c-1.5-5-5-7.8-10.3-8.8c-3.8-0.7-7.2-0.2-10.4,1.8
		C61,26.8,58.5,30.3,57.8,35.2 M457.3,112c-0.2,1.5-0.1,3-0.6,4.4c-0.4,1.3,0.2,1.5,1.1,1.5c2.5,0,5,0,7.7,0
		c2.4-14.5,4.8-28.9,7.2-43.5c-3.3,0-6.3,0-9.1,0c-0.6,3.5-1.2,7-1.7,10.4c-0.9,5.3-1.7,10.7-2.6,16C458.8,104.4,458,108,457.3,112
		 M465.2,67.2c2.4,0,4.8,0.2,7.1,0.1c0.6,0,1.5-0.9,1.7-1.5c0.5-1.7,0.7-3.4,0.9-5.1c0.1-1.1-0.1-2-1.6-1.9c-2,0.1-4,0-5.9,0.1
		c-0.5,0-1.4,0.6-1.4,1C465.6,62.1,465.3,64.5,465.2,67.2z"/>
	<path class="st2" d="M155.1,54c-11.1,0.2-22.3,0.2-33.7,0.2c0.4-0.1,0.9-0.4,1.5-0.4c10.4,0,20.9,0,31.3,0
		C154.5,53.7,154.8,53.8,155.1,54z"/>
	<path class="st3" d="M461.8,57.3c-0.8-0.2-1.5-1-2.3-1c-8.6-0.1-17.2,0-26,0c0.3-0.2,0.8-0.4,1.2-0.4c8.5,0,17,0,25.5,0
		C461.2,55.8,462.1,55.7,461.8,57.3z"/>
	<path class="st2" d="M377.1,117.7c8.6-0.2,17.2-0.1,26.1-0.1c-0.4,0.1-0.9,0.4-1.5,0.4c-8,0-15.9,0.1-23.9,0.1
		C377.6,118,377.4,117.9,377.1,117.7z"/>
	<path class="st3" d="M428.8,92c0.6-0.1,1.4-0.4,2.2-0.4c7.6,0,15.1,0,22.9,0c-0.5,0.1-1.2,0.4-1.9,0.4C444.3,92,436.7,92,428.8,92z
		"/>
	<path class="st4" d="M455.1,83.2c-7.3,0.2-14.6,0.2-21.9,0.2c-1,0-1.9-0.1-3-0.3C438.5,83,446.8,83,455.1,83.2z"/>
	<path class="st4" d="M436.1,64.8c0.7-0.1,1.5-0.3,2.4-0.3c7.2,0,14.4,0,21.9,0c-0.3,0.1-0.9,0.4-1.4,0.4
		C451.4,64.9,443.9,64.8,436.1,64.8z"/>
	<path class="st5" d="M177.6,99.8c0.5-0.1,1.3-0.3,2-0.3c6.7-0.1,13.4-0.1,20.3-0.1c-0.2,0.2-0.6,0.5-1,0.5
		C191.9,99.8,184.8,99.8,177.6,99.8z"/>
	<path class="st2" d="M211.8,116.8c0.8,0.2,1.5,0.7,2.1,0.7c6.2,0.1,12.5,0.1,18.8,0.3c-6.5,0.1-13.1,0.1-19.8,0.1
		C212.3,117.9,211.2,118.2,211.8,116.8z"/>
	<path class="st5" d="M262.2,99.8c0.5-0.1,1.2-0.4,1.8-0.4c6.6,0,13.2,0,20,0c-0.4,0.1-1.1,0.4-1.7,0.4
		C275.7,99.8,269.1,99.8,262.2,99.8z"/>
	<path class="st2" d="M181.1,117.7c6-0.2,12.2-0.1,18.3-0.2c0.7,0,1.4-0.7,2.3-1.1c-0.1,0.6,0.4,1.6-1,1.6
		C194.1,117.9,187.6,117.9,181.1,117.7z"/>
	<path class="st2" d="M231.7,109.7c-2,0.1-4.2,0.2-6.3,0.3c-3.4,0.1-6.8,0-10.3,0.1c-0.7,0-1.4,0.3-2.2,0.6
		c-0.4-1.4,0.7-0.9,1.5-0.9C220.1,109.7,225.8,109.7,231.7,109.7z"/>
	<path class="st2" d="M266.4,117.9c0.5-0.2,1.1-0.4,1.7-0.4c5.8,0,11.6,0,17.6,0c-0.4,0.1-1.1,0.4-1.7,0.4
		C278.2,117.9,272.4,117.9,266.4,117.9z"/>
	<path class="st2" d="M229.8,82.1c0.5-0.1,1.1-0.3,1.8-0.3c5.5,0,11,0,16.6,0c-0.4,0.1-1,0.4-1.5,0.4
		C241.2,82.1,235.6,82.1,229.8,82.1z"/>
	<path class="st5" d="M184,109.6c0,0,0-0.2,0-0.2c6-0.1,12.1-0.1,18.2,0.1c0.1,0.1-0.1,0.2-0.4,0.2
		C195.8,109.6,189.9,109.6,184,109.6z"/>
	<path class="st2" d="M398.7,91.7c-3.9,0.1-8,0.2-12,0.2c-2,0-3.9,0.1-6.1,0.1c0.2-0.2,0.6-0.5,1-0.5
		C387.2,91.6,392.9,91.6,398.7,91.7z"/>
	<path class="st2" d="M376.1,81.9c5.2-0.1,10.6,0,16.1,0.1C386.9,82.1,381.6,82,376.1,81.9z"/>
	<path class="st5" d="M286.6,109.5c-5,0.1-10,0.1-15.2,0.1c1.5-0.1,3.2-0.2,5-0.3C279.7,109.3,283.1,109.3,286.6,109.5z"/>
	<path class="st5" d="M124.9,94.5c0.4-0.1,1-0.4,1.7-0.4c3.6,0,7.2,0.1,10.9,0.3C133.4,94.5,129.3,94.5,124.9,94.5z"/>
	<path class="st2" d="M339,116.9c0.5,0.1,1,0.5,1.6,0.5c2.8,0,5.5,0,8.5-0.1c0,0.2-0.1,0.5-0.3,0.5c-3,0-6,0-9,0
		C339.5,117.9,339.3,117.4,339,116.9z"/>
	<path class="st3" d="M488,82.5c2.3-0.1,4.8-0.3,7.3-0.4c0.8,0,1.6,0,2.7,0c-0.9,0.1-2,0.4-3.1,0.4C492.7,82.6,490.4,82.5,488,82.5z
		"/>
	<path class="st3" d="M499.1,74.1c-3.1,0.1-6.3,0.1-9.6-0.1C492.6,73.9,495.8,73.9,499.1,74.1z"/>
	<path class="st3" d="M489.4,73.7c-0.1-0.6-0.2-1.3-0.2-2.1C489.4,72.2,489.4,72.9,489.4,73.7z"/>
	<path class="st4" d="M430.2,82.8c-0.1-0.3-0.2-0.8-0.2-1.4C430.2,81.7,430.2,82.2,430.2,82.8z"/>
	<path class="st5" d="M262.1,100.5c-0.1-0.1-0.2-0.4-0.1-0.7C262.1,100,262.1,100.2,262.1,100.5z"/>
	<path class="st5" d="M124.5,94.9c-0.1-0.1,0-0.3,0.2-0.4C124.7,94.6,124.6,94.7,124.5,94.9z"/>
	<path class="st6" d="M372.2,74.3c0,0,0.1,0,0.1,0C372.3,74.4,372.3,74.3,372.2,74.3z"/>
	<path class="st1" d="M26.9,104.8c0.8-4.3,1.6-8.5,2.4-12.6c1.6-8.4,3.4-16.7,4.8-25.1c1-6.2,2.5-12.4,2.3-18.9
		c-0.2-8,0.2-16,0.3-24c0-1.9,0.2-3.8,0.4-5.7c0.2-2,1.7-2.9,3.4-3.5c8.8-3,17.5-6,26.3-9c3.1-1.1,6.2-2.1,9.3-3.1
		c2.3-0.7,3.8-0.2,4.6,1.9c0.2,0.5,0.1,1.4-0.2,1.9c-0.9,1.8-2.4,2.9-4.4,3.6C68.5,13.1,60.8,16,53,18.7c-2.6,0.9-4.8,2-6.5,4.3
		c-1.7,2.4-1.8,5.1-1.5,7.8c0.4,4.4,1.1,8.8,1.6,13.2c0.3,2.7,1.4,4.9,3.7,6.6c5.5,4.1,10.9,8.3,16.4,12.4c3.5,2.6,6.9,5.3,10.4,7.9
		c2,1.5,4,2.9,6,4.4c1.3,1,1.3,3.1,0.1,4.6C78,85.9,72.7,92,67.5,98.1c-0.7,0.9-1.4,1.8-2.3,2.9c-0.6-1.9-1.3-3.5-1.7-5.3
		c-0.2-0.8,0.2-2,0.7-2.6c2.5-2.8,5.1-5.5,7.8-8.2c2.1-2.1,2.8-4.6,1.7-7.4c-0.4-0.9-1.1-1.7-1.8-2.3c-3.4-2.7-6.9-5.3-10.4-7.8
		c-2.5-1.8-4.6-1.2-6,1.5c-2.1,3.9-3.2,8-3.1,12.3c0.2,4.5,1.3,8.8,3.1,12.9c1.8,4.1,2.9,8.4,4.2,12.7c2,6.6,3.9,13.3,5.8,20
		c1.7,5.8,3.5,11.6,5.2,17.5c0.7,2.3-0.1,4.2-1.7,4.8c-2.7,1.1-4,0.3-5-2.4c-2.4-6.2-4.4-12.5-6.6-18.7
		c-3.7-10.7-7.5-21.4-11.2-32.1c-0.8-2.4-2.8-2.1-4.3-1.7c-1,0.3-2.3,1.5-2.6,2.6c-1.7,5.9-3.1,11.9-4.6,17.8
		c-1,3.9-1.9,7.8-2.9,11.7c-1.4,5.3-2.9,10.7-4.3,16c-0.4,1.4-0.5,2.8-1,4.1c-0.4,1-1,1.9-1.7,2.7c-1.6,1.8-3.2,0.6-4.6-0.3
		c-1.2-0.8-1.7-1.8-1.2-3.5c1.2-4.8,2-9.7,3-14.6c1.2-6,2.4-12.1,3.5-18.1C26,110,26.5,107.5,26.9,104.8z"/>
	<path class="st1" d="M64.7,78.4c1.8,1.2,2,2.2,0.3,3.6c-1.6,1.4-3,3.2-4.6,5c-1.2-4-1.5-7.7,0-11.7C61.9,76.4,63.3,77.4,64.7,78.4z
		"/>
	<path class="st1" d="M147.3,63.6c1.4,0,2.9-0.1,4.3,0c4,0,7.4,4.4,6.6,8.3c-0.4,2-0.7,4.1-1.3,6.1c-1,3.7-3.6,5.8-7.6,6.6
		c-6.3,0-12.3,0-18.3,0c-0.4,0-0.8,0.2-1.3,0.4c-1.1-0.1-2.1-0.1-3.4-0.2c0.4-3,0.8-5.9,1.3-8.7c0.6-3.7,1.3-7.5,2-11.2
		c0.1-0.5,0.7-0.8,1.4-1.2C136.7,63.7,142,63.7,147.3,63.6z"/>
	<path class="st5" d="M130,85c0.2-0.1,0.6-0.3,1.1-0.3c6,0,12,0,18.1,0c-1.8,0.1-3.8,0.4-5.9,0.4C138.9,85,134.5,85,130,85z"/>
	<path class="st4" d="M147.3,63.5c-5.3,0.2-10.6,0.2-16.1,0.2c0.1-0.2,0.3-0.5,0.5-0.5C136.9,63.2,142.1,63.2,147.3,63.5z"/>
	<path class="st1" d="M264.4,87.3c2.6-4.2,6.3-6.1,11.1-5.5c2.1,0.2,4.4,0.3,6.3,1c2.6,1,3.8,4.1,3.1,6.7c-0.7,2.5-3,2.8-4.9,2.9
		c-5.2,0.2-10.4,0.1-15.6,0.1c-1,0-1.5-0.4-1.1-1.6C263.8,89.7,264,88.5,264.4,87.3z"/>
	<path class="st1" d="M184.8,92.4c-1.4,0-2.9,0-4.3,0c-1.4,0-1.8-0.6-1.6-1.9c0.6-4.1,5-8.8,9.6-8.8c1.7,0,3.4-0.1,5.1-0.1
		c4.2-0.1,7.2,3.7,7.1,6.7c-0.1,1.9-0.7,3.1-2.9,3.7c-3.8,0-7.3,0-10.8,0C186.3,92,185.6,92.3,184.8,92.4z"/>
	<path class="st1" d="M184,109.7c5.9-0.1,11.7-0.1,17.8-0.1c0,0.1-0.2,0.3-0.3,0.3C195.7,109.9,189.9,109.9,184,109.7z"/>
	<path class="st5" d="M185,92.4c0.6-0.1,1.3-0.4,2.1-0.4c3.5,0,7,0,10.6,0c-0.6,0.1-1.3,0.4-2.1,0.4C192.1,92.4,188.7,92.4,185,92.4
		z"/>
	<path class="st1" d="M377.7,107.8c-1.7-4.5,0.8-8.5,6.4-8.7c4-0.2,7.9,0,11.9-0.1c1.4,0,1.9,0.6,1.6,2.1c-0.5,2.1-0.7,4.1-1,6.2
		c-0.2,1.9-0.9,2.9-3.1,2.8c-3.7-0.2-7.4-0.1-11.1,0C380.4,110.2,379,109.3,377.7,107.8z"/>
	<path class="st1" d="M78,40.2c-1.6,1.7-3,3.2-5.3,3.7c-3.4,0.7-6.6-1-7.7-4.4c-1.9-5.9,3.3-10.4,7.5-10.4c4.9-0.1,8.9,5.4,6.1,10
		C78.5,39.4,78.3,39.8,78,40.2z"/>
</g>
<g id="Layer_2">
	<path class="st7" d="M64.4,2c2.4,0.1,4.7,0,6.8,0.4c3.4,0.6,6.3,4.4,6.5,7.9c0.4,6.4-2.8,10.1-8.7,12.2c-8,2.8-15.9,5.7-23.9,8.5
		c-2.9,1-3.6,2.4-3.2,5.4c0.5,2.9,1.2,5.9,1.1,8.8c-0.2,4.2,2.3,6.3,5.2,8.5c6.9,5.2,13.7,10.4,20.6,15.7c3.1,2.4,6.4,4.5,9.1,7.2
		c4.3,4.2,3.8,9.5,0.4,13.7c-5.9,7.1-11.7,14.3-17.9,21c-2.4,2.6-2.7,4.6-1.7,7.7c2.3,7.1,4.2,14.3,6.2,21.5
		c1.1,4.1,2.8,8.1,2.9,12.5c0.1,3.8-3.9,8-7.2,8.8c-3.7,0.9-7.3,0.7-10.2-2.1c-1-0.9-2-2.1-2.4-3.3c-2.1-5.7-3.9-11.5-6-17.2
		c-2.7-7.6-5.5-15.2-8.3-22.8c-0.1-0.4-0.2-0.8-0.6-1.3c-1.9,7.2-3.8,14.3-5.7,21.5c-1.6,6-2.9,12.1-4.6,18.1
		c-1.3,4.5-4.5,7.2-9.1,7.5c-4.8,0.3-8.9-1.2-11-5.7c-0.9-2.1-1-4.8-0.6-7.1c1.5-8.8,3.4-17.4,5.2-26.2c1.3-6.8,2.7-13.5,4-20.3
		c0.8-4.3,1.4-8.6,2.2-12.9c0.8-4.4,1.7-8.8,2.5-13.1c0.9-5,2.3-9.9,2.7-15c0.6-7.4,0.7-14.8,0.9-22.2c0.2-5.2,0.1-10.4,0.5-15.5
		c0.3-4.4,2.5-7.9,6.9-9.5c8.5-3,17.1-5.8,25.7-8.7C56.6,4.7,60.4,3.3,64.4,2 M16.9,110.7c-0.5,2.5-0.9,5-1.4,7.5
		c-1.2,6-2.3,12.1-3.5,18.1c-1,4.9-1.8,9.7-3,14.6c-0.4,1.7,0.1,2.7,1.2,3.5c1.4,0.9,3,2.1,4.6,0.3c0.7-0.8,1.3-1.7,1.7-2.7
		c0.5-1.3,0.6-2.7,1-4.1c1.4-5.3,2.9-10.7,4.3-16c1-3.9,1.9-7.8,2.9-11.7c1.5-6,2.9-11.9,4.6-17.8c0.3-1,1.5-2.3,2.6-2.6
		c1.6-0.4,3.5-0.6,4.3,1.7c3.7,10.7,7.5,21.4,11.2,32.1c2.2,6.2,4.2,12.5,6.6,18.7c1,2.7,2.3,3.5,5,2.4c1.6-0.6,2.4-2.5,1.7-4.8
		c-1.7-5.8-3.5-11.6-5.2-17.5c-1.9-6.7-3.8-13.3-5.8-20c-1.3-4.3-2.4-8.6-4.2-12.7c-1.8-4.2-3-8.5-3.1-12.9c-0.1-4.3,1-8.5,3.1-12.3
		c1.4-2.7,3.5-3.3,6-1.5c3.5,2.5,7,5.2,10.4,7.8c0.8,0.6,1.5,1.5,1.8,2.3c1.1,2.8,0.4,5.2-1.7,7.4c-2.6,2.7-5.3,5.4-7.8,8.2
		c-0.5,0.6-0.9,1.8-0.7,2.6c0.3,1.7,1,3.4,1.7,5.3c0.9-1.1,1.5-2.1,2.3-2.9c5.2-6.1,10.5-12.1,15.7-18.2c1.2-1.4,1.2-3.6-0.1-4.6
		c-2-1.5-4-2.9-6-4.4c-3.5-2.6-7-5.3-10.4-7.9c-5.5-4.2-10.8-8.4-16.4-12.4c-2.3-1.7-3.4-3.9-3.7-6.6c-0.5-4.4-1.2-8.8-1.6-13.2
		c-0.2-2.7-0.2-5.3,1.5-7.8c1.6-2.3,3.8-3.4,6.5-4.3c7.8-2.6,15.4-5.5,23.2-8.2c2-0.7,3.5-1.8,4.4-3.6c0.3-0.5,0.4-1.4,0.2-1.9
		c-0.8-2.1-2.2-2.6-4.6-1.9c-3.1,1-6.2,2-9.3,3.1c-8.8,3-17.5,6-26.3,9c-1.7,0.6-3.2,1.5-3.4,3.5c-0.2,1.9-0.4,3.8-0.4,5.7
		c-0.2,8-0.6,16-0.3,24c0.2,6.5-1.3,12.6-2.3,18.9c-1.4,8.4-3.2,16.7-4.8,25.1C18.5,102.1,17.7,106.2,16.9,110.7 M54.5,84.1
		c-1.3-1-2.6-2-4-3c-1.6,4-1.3,7.7,0,11.7c1.6-1.7,2.9-3.5,4.6-5C56.6,86.3,56.5,85.3,54.5,84.1z"/>
	<path class="st8" d="M114.3,100.6c-0.9,5.6-1.8,11.3-2.7,16.9c-0.3,2-0.7,4-1.1,6.1c-2.9,0-5.7,0-8.5,0c-1.3,0-1.3-0.9-1.2-1.9
		c2-11.4,4-22.7,6-34.1c1.3-7.6,2.5-15.1,3.7-22.7c0.3-1.6,0.3-3.2,0.8-5c11.5-0.1,22.7-0.1,33.9-0.1c7.1,1.2,12.2,4.7,13,12.5
		c0.5,5-0.4,10.1-2.1,14.8c-2.3,6.9-7.6,10.6-14.5,12.2c-0.7,0.2-1.4,0.3-2.5,0.6c4.1,7.9,8.1,15.5,12.2,23.4
		c-0.8,0.1-1.4,0.2-2.1,0.2c-2.5,0-5.1-0.1-7.6,0.1c-2,0.2-2.9-0.7-3.7-2.4c-2.9-5.9-6-11.8-9-17.6c-0.5-1-1-2.1-1.6-3.4
		c-3.7-0.3-7.3-0.4-10.9-0.4c-0.6,0-1.2,0.3-1.9,0.4c0,0,0,0-0.1-0.1C114.4,100.3,114.3,100.4,114.3,100.6 M120.1,90.7
		c4.4,0,8.8,0.1,13.1,0c2,0,4-0.2,6.4-0.4c3.7-0.8,6.3-2.9,7.3-6.6c0.6-2,0.9-4.1,1.3-6.1c0.8-3.9-2.7-8.2-6.6-8.3
		c-1.4,0-2.9,0-4.4-0.3c-5.2,0-10.4-0.1-15.5-0.1c-0.2,0-0.5,0.3-1,0.4c-0.4,0.4-1,0.8-1.1,1.2c-0.7,3.7-1.4,7.5-2,11.2
		c-0.5,2.8-0.8,5.7-1.3,8.7C117.6,90.5,118.6,90.6,120.1,90.7z"/>
	<path class="st8" d="M252,106.3c-0.5,5.8,2.8,9.2,9.2,9c5.4,0,10.5,0,15.5,0c-0.3,2.5-0.5,5-1,7.7c-6,0.2-11.8,0.2-17.6,0.2
		c-0.6,0-1.3,0.2-1.9,0.3c-4.1-0.5-7.7-1.9-10.4-5c-3.3-3.8-3.6-8.4-3-13.1c0.4-3.4,0.7-6.8,1.5-10.1c1-4.3,2.8-8.2,6.5-11.1
		c3.1-2.5,6.4-4.4,10.4-4.8c5-0.5,10.2-1.1,14.9,1c7,3.1,9.6,9.1,7.4,16.9c-1.3,4.5-4,7.3-9.2,7.7c-7,0-13.5,0-20.1,0
		c-0.7,0-1.4,0.3-2,0.4c0,0,0,0-0.1,0C251.8,105.7,251.9,106,252,106.3 M254.3,93.1c-0.3,1.2-0.5,2.4-0.9,3.4
		c-0.5,1.2,0.1,1.6,1.1,1.6c5.2,0,10.4,0.1,15.6-0.1c1.9-0.1,4.2-0.4,4.9-2.9c0.7-2.6-0.6-5.7-3.1-6.7c-1.9-0.8-4.2-0.8-6.3-1
		C260.6,86.9,256.9,88.8,254.3,93.1z"/>
	<path class="st8" d="M192.3,115.3c-0.2,2.1-0.3,4.2-0.7,6.6c-0.9,0.6-1.6,1.2-2.3,1.2c-6.1,0.1-12.2,0-18.4,0
		c-5.7,0-12.8-5.8-12.7-12.4c0-5.4,0.7-10.8,1.8-16c1.6-7.2,6.1-12.4,13.1-14.5c6-1.9,12.4-1.9,18.5,0.2c3.3,1.1,5.7,3.5,7.1,6.9
		c2.3,5.3,1.2,11.8-3,15.4c-1.4,1.2-3.6,1.6-5.8,2.3c-7.1,0-13.8,0-20.5,0c-0.7,0-1.4,0.2-2.2,0.3c0.1,1.5,0,3.1,0.3,4.6
		c0.7,3.1,3.2,4.2,6.1,5c0.2,0.1,0.1,0.3,0.1,0.4c5.8,0.2,11.6,0.2,17.5,0.2c0.2,0,0.4-0.2,0.6-0.3
		C192.1,115.3,192.3,115.3,192.3,115.3 M188.1,97.6c1.9-0.5,2.5-1.8,2.6-3.7c0.1-3-2.9-6.8-7.1-6.7c-1.7,0.1-3.4,0.1-5.1,0.1
		c-4.7,0-9.1,4.7-9.6,8.8c-0.2,1.3,0.2,1.9,1.6,1.9c1.4,0,2.9,0,4.7,0c3.5,0,6.9,0,10.4,0C186.3,98.1,187.1,97.8,188.1,97.6z"/>
	<path class="st8" d="M365.9,87.4c0.4-2.3,0.7-4.5,1.2-6.8c0.1-0.4,0.9-1,1.4-1c5.8-0.1,11.7-0.5,17.5,0c8.5,0.8,13.4,6.6,12,15.8
		c-1.4,9.2-3.1,18.4-4.8,27.7c-8.9,0.1-17.6,0.1-26.2,0.1c-4.2-0.7-7.7-2.7-8.6-7.1c-1.3-6.3,0-14.7,8-17.2c1.2-0.4,2.4-0.8,4-1.1
		c2.3,0,4.3,0,6.3-0.1c4.1-0.1,8.1-0.2,12.2-0.2c0.1-1.3,0.5-2.7,0.2-4c-0.8-3.8-2.4-5-6.8-5.7C376.6,87.5,371.3,87.5,365.9,87.4
		 M367.7,113.6c1.2,1.3,2.6,2.2,4.6,2.2c3.7-0.1,7.4-0.1,11.1,0c2.2,0.1,2.9-0.9,3.1-2.8c0.3-2.1,0.5-4.2,1-6.2
		c0.3-1.5-0.1-2.1-1.6-2.1c-4,0-7.9-0.1-11.9,0.1C368.4,105,365.9,109,367.7,113.6z"/>
	<path class="st9" d="M425.9,70.5c-3.3,1.2-3.8,4-4.1,7.1c-0.3,3-1,6.1-1.7,9.4c0,0.8,0.1,1.2,0.1,1.7c0,0,0,0,0.1,0.1
		c1.1,0.2,2,0.3,3,0.3c7.3,0,14.6,0,22,0c-0.3,2.7-0.6,5.4-1.2,8.1c-7.9,0.1-15.5,0.1-23.1,0.1c-0.8,0-1.6,0.2-2.4,0.4
		c-0.8,4.9-1.5,9.8-2.3,14.7c-0.5,3.1-1,6.2-1.5,9.3c-0.2,1.3-0.6,1.9-2,1.9c-2.4-0.1-4.9,0-7.7,0c0.5-3.5,0.9-6.7,1.4-10
		c0.8-4.7,1.6-9.4,2.4-14c1-5.7,1.9-11.3,2.8-17c0.5-3.2,0.7-6.5,1.3-9.8c1-5.2,4.3-9.8,10.2-10.9c9,0,17.5-0.1,26.1,0
		c0.7,0,1.5,0.8,2.2,1.2c-0.4,2.2-0.7,4.4-1.3,6.8c-7.5,0.2-14.7,0.1-21.9,0.2C427.6,70.2,426.7,70.4,425.9,70.5z"/>
	<path class="st8" d="M219.6,87.8c-0.7,0.3-1.5,0.6-2.2,1c-2.1,1.2-3,3.4-2.2,5.8c0.7,2.2,2.6,2.5,4.6,2.7c2.8,0.3,5.5,0.4,8.3,0.7
		c6.6,0.8,10.6,7.3,8.7,13.2c-1.3,4.1-2.4,8.3-6.7,10.3c-2.2,1-4.7,1.4-7.3,2c-6.5-0.1-12.8-0.2-19-0.3c-0.7,0-1.3-0.5-2-0.8
		c0.3-1.9,0.5-3.7,1-5.9c0.9-0.4,1.6-0.7,2.3-0.7c3.4-0.1,6.8,0,10.3-0.1c2.2,0,4.3-0.2,6.5-0.3c1.5-0.7,3.4-1,4.6-2.1
		c1.2-1,2.1-2.6,1.4-4.6c-0.8-2.1-2.6-2.6-4.3-2.9c-2.9-0.4-5.8-0.2-8.7-0.7c-7.1-1.5-10.1-5.6-9.1-12.8c0.8-5.7,3.6-9.4,8.6-11.6
		c1.4-0.6,3-1.1,4.5-1.1c6.2-0.1,12.5,0,18.7,0c0.6,0,1.2,0.1,1.9,0.2c-0.4,2.5-0.7,4.9-1.3,7.4c-5.7,0.2-11.2,0.2-16.6,0.2
		C220.9,87.5,220.3,87.7,219.6,87.8z"/>
	<path class="st10" d="M362.3,80.1c-2.5,4.8-5,9.6-7.6,14.3c-1.4,2.6-2.8,5.1-4.2,7.6c-1.2,2.2-2.4,4.3-3.5,6.5
		c-1.7,3.2-3.4,6.4-5.1,9.6c-0.9,1.6-1.7,3.2-2.8,4.8c-3,0.1-5.8,0.2-8.5,0.2c-0.5,0-1-0.5-1.6-0.7c-0.4-1.6-0.9-3.3-1.3-4.9
		c-1.8-8-3.5-16-5.3-24.1c-0.8-3.8-1.7-7.5-2.5-11.3c-0.4-1.9,0.1-2.6,2-2.6c1.8,0,3.7,0.1,5.5,0c1.5-0.1,2.1,0.5,2.4,2
		c1.7,9.4,3.6,18.8,5.4,28.2c0.1,0.4,0.4,0.8,0.7,1.6c0.8-1.5,1.4-2.6,2-3.8c4-7.4,8-14.8,11.9-22.2c0.9-1.7,1.7-3.3,2.7-5
		c0.2-0.4,0.8-0.8,1.2-0.8c2.7,0,5.3,0.1,8.2,0.3C362.2,80,362.3,80.1,362.3,80.1z"/>
	<path class="st11" d="M489.2,79.9c0,0.7,0.1,1.5,0,2.2c-0.2,1.8-0.6,3.7-1.2,5.6c-1.1,0.1-2,0.1-2.8,0.1c-2.5,0.1-5,0.3-7.5,0.4
		c-0.9,5.4-1.8,10.7-2.8,16.1c-0.3,1.8-0.8,3.5-1,5.3c-0.4,3.2,1.8,5.6,5.2,5.7c4.6,0.1,4.6,0.1,3.8,4.7c-0.1,0.3,0,0.7,0,1
		c-0.2,1.6-0.7,2.8-2.8,2.5c-2.7-0.4-5.6-0.2-8.2-0.9c-3.9-1.1-6-3.9-6.8-8.1c-0.8-4.3,0.6-8.3,1.1-12.4c0.5-4.6,1.5-9.1,2.3-13.6
		c0.8-4.7,1.6-9.5,2.4-14.2c0.2-1.4,0.4-2.8,0.5-4c3,0,5.9,0,8.9,0c-0.4,2.3-0.7,4.4-1.2,6.8c-0.1,1,0,1.7,0.1,2.5c0,0,0,0,0.1,0.1
		C482.8,79.8,486,79.9,489.2,79.9z"/>
	<path class="st10" d="M304.2,79.9c3.7-0.1,7.2-0.2,10.8-0.2c0.3,0,0.9,0.8,0.8,1.2c-0.2,1.9-0.7,3.8-0.8,5.8
		c-0.1,1.2-0.7,1.5-1.7,1.5c-1.8,0-3.6,0-5.3,0c-3.9,0.1-8.1,2.4-8.9,7.2c-1,5.7-1.8,11.4-2.8,17.1c-0.5,3.3-1.1,6.6-1.7,9.9
		c-0.1,0.3-0.7,0.8-1.1,0.8c-2.1,0.1-4.2,0.2-6.3,0.1c-0.5,0-1.4-1.2-1.3-1.8c0.3-2.7,0.8-5.4,1.2-8c0.8-5.2,1.4-10.3,2.4-15.5
		c0.9-4.4,1.3-9,4.5-12.7C296.6,82.4,300,80.5,304.2,79.9z"/>
	<path class="st11" d="M47.8,40.8c0.7-4.8,3.2-8.3,7-10.8c3.2-2.1,6.6-2.5,10.4-1.8c5.3,0.9,8.8,3.8,10.3,8.8
		c3.4,11.2-5.1,19.7-14.1,19.6c-7.9-0.1-13.2-5.2-13.6-13.7C47.7,42.2,47.7,41.5,47.8,40.8 M68.1,45.8c0.2-0.4,0.3-0.7,0.5-1.1
		c2.7-4.6-1.2-10.1-6.1-10c-4.2,0.1-9.4,4.5-7.5,10.4c1.1,3.4,4.2,5.1,7.7,4.4C64.9,49.2,66.4,47.6,68.1,45.8z"/>
	<path class="st9" d="M447.3,117.5c0.7-3.8,1.4-7.4,2-11c0.9-5.3,1.7-10.7,2.6-16c0.6-3.4,1.2-6.9,1.7-10.4c2.8,0,5.7,0,9.1,0
		c-2.4,14.5-4.8,28.9-7.2,43.5c-2.7,0-5.2,0-7.7,0c-0.9,0-1.5-0.2-1.1-1.5C447.1,120.7,447.1,119.2,447.3,117.5z"/>
	<path class="st9" d="M455.1,72.8c0.2-2.5,0.4-5,0.9-7.3c0.1-0.4,0.9-0.9,1.4-1c2-0.1,4,0,5.9-0.1c1.5-0.1,1.7,0.9,1.6,1.9
		c-0.2,1.7-0.4,3.5-0.9,5.1c-0.2,0.6-1.1,1.5-1.7,1.5C459.9,73.1,457.6,72.9,455.1,72.8z"/>
</g>
</svg>
